# xmcd CD database file
#
# Track frame offsets:
#	225
#	29624
#	74208
#	109112
#	151266
#	182985
#	216981
#	266518
#	289464
#
# Disc length: 4160 seconds
#
# Revision: 0
# Processed by: cddbd v1.4PL0 Copyright (c) Steve Scherf et al.
# Submitted via: CDex 1.50Beta7
#
DISCID=95103d09
DTITLE=Clayton, Englar, and Equinox - Last World
DYEAR=1997
DGENRE=Jazz
TTITLE0=Last World
TTITLE1=Like I Said
TTITLE2=Q.E.D.
TTITLE3=After This
TTITLE4=Caravan | Virgin Jungle
TTITLE5=All Too True
TTITLE6=Equinox
TTITLE7=Wind's Edge
TTITLE8=Ashokan Farewell
EXTD=YEAR: 1997
EXTT0=
EXTT1=
EXTT2=
EXTT3=
EXTT4=
EXTT5=
EXTT6=
EXTT7=
EXTT8=
PLAYORDER=
